# ProBuilder 5.2.2
# https://unity3d.com/unity/features/worldbuilding/probuilder
# 10-07-2024 11:47:13

mtllib ./Paper.mtl
o Paper

g Paper
v 0 0 1
v -1 0 1
v 0 1 1
v -1 1 1
v -1 0 0
v -1 1 0
v 0 0 0
v 0 1 0

vt -0.140625 0
vt -0.140625 0.140625
vt 1 0
vt 0 0
vt 1 1
vt 0 1
vt 0 0.140625

vn 0 0 1
vn -1 0 0
vn 0 0 -1
vn 1 0 0
vn 0 1 0
vn 0 -1 0

usemtl ProBuilderDefault
f 3/2/1 4/2/1 2/1/1 1/1/1
f 4/5/2 6/6/2 5/4/2 2/3/2
f 6/7/3 8/7/3 7/4/3 5/4/3
f 8/7/4 3/2/4 1/1/4 7/4/4
f 8/7/5 6/7/5 4/2/5 3/2/5
f 1/1/6 2/1/6 5/4/6 7/4/6

